<svg width="527" height="527" viewBox="0 0 527 527" fill="none" xmlns="http://www.w3.org/2000/svg">
<g clip-path="url(#clip0_2051_4)">
<path d="M378.455 263.242C353.683 263.266 329.579 271.281 309.726 286.097L240.339 216.71C255.331 197.002 263.42 172.908 263.359 148.146C263.424 122.214 254.73 97.0212 238.686 76.6487C222.643 56.2762 200.19 41.9184 174.966 35.902C149.743 29.8856 123.227 32.5633 99.715 43.5011C76.2034 54.4389 57.0743 72.9958 45.4278 96.1644C33.7813 119.333 30.2999 145.756 35.5477 171.151C40.7956 196.545 54.4652 219.424 74.3412 236.078C94.2173 252.733 119.135 262.187 145.056 262.91C170.977 263.632 196.383 255.58 217.156 240.058L286.378 309.445C270.861 330.212 262.808 355.61 263.526 381.524C264.243 407.438 273.689 432.351 290.331 452.228C306.974 472.105 329.84 485.781 355.225 491.041C380.61 496.301 407.027 492.837 430.198 481.21C453.369 469.583 471.936 450.475 482.891 426.979C493.847 403.484 496.55 376.978 490.563 351.755C484.575 326.532 470.247 304.068 449.901 288.004C429.554 271.939 404.379 263.214 378.455 263.242ZM66.0505 148.146C66.0505 131.886 70.8721 115.991 79.9057 102.471C88.9392 88.9515 101.779 78.4142 116.801 72.1918C131.823 65.9694 148.353 64.3413 164.301 67.5135C180.248 70.6856 194.897 78.5156 206.395 90.0131C217.892 101.511 225.722 116.159 228.894 132.107C232.066 148.054 230.438 164.584 224.216 179.607C217.994 194.629 207.456 207.469 193.937 216.502C180.417 225.536 164.522 230.357 148.262 230.357C126.458 230.357 105.547 221.696 90.1298 206.278C74.7121 190.86 66.0505 169.949 66.0505 148.146Z" fill="#060010"/>
</g>
<defs>
<clipPath id="clip0_2051_4">
<rect width="526.155" height="526.155" fill="white" transform="translate(0.280762)"/>
</clipPath>
</defs>
</svg>
