<?xml version="1.0" standalone="no"?>
<!DOCTYPE svg PUBLIC "-//W3C//DTD SVG 20010904//EN"
 "http://www.w3.org/TR/2001/REC-SVG-20010904/DTD/svg10.dtd">
<svg version="1.0" xmlns="http://www.w3.org/2000/svg"
 width="625.000000pt" height="625.000000pt" viewBox="0 0 625.000000 625.000000"
 preserveAspectRatio="xMidYMid meet">

<g transform="translate(0.000000,625.000000) scale(0.100000,-0.100000)"
fill="#000000" stroke="none">
<path d="M2580 5620 c-152 -14 -352 -88 -485 -180 -296 -203 -477 -558 -477
-930 0 -127 12 -199 58 -350 62 -199 161 -356 327 -519 90 -88 164 -142 303
-218 140 -78 140 -78 546 -78 196 0 358 -2 361 -5 10 -11 13 -2360 3 -2370 -7
-7 -372 -10 -1106 -10 -1183 0 -1145 -2 -1236 52 -67 39 -69 48 -72 383 -3
308 7 482 34 590 21 80 99 244 164 341 66 98 252 284 345 346 229 149 484 223
812 235 184 7 213 16 239 80 20 46 12 93 -22 133 -48 56 -106 59 -424 24 -284
-32 -522 -117 -760 -272 -97 -63 -267 -228 -352 -342 -122 -164 -222 -361
-262 -518 -27 -107 -36 -251 -36 -600 l0 -350 40 -79 c22 -44 57 -99 77 -122
48 -51 139 -106 222 -131 61 -19 99 -20 1281 -20 l1217 0 34 23 c71 47 69 28
69 648 0 437 3 558 13 560 6 2 279 3 605 1 l593 -3 11 -27 c63 -152 113 -214
217 -265 63 -31 70 -32 186 -32 111 0 124 2 176 27 191 94 281 356 187 545
-30 60 -121 159 -169 184 -21 10 -69 26 -106 35 -84 19 -187 7 -273 -32 -64
-29 -95 -57 -142 -125 l-33 -49 -617 0 c-339 0 -623 3 -632 6 -14 5 -16 34
-16 214 0 203 1 209 21 215 11 4 252 5 534 3 l513 -3 25 23 c41 39 47 82 47
346 l0 246 209 0 208 0 38 -65 c46 -78 83 -117 153 -162 73 -47 123 -63 201
-63 247 0 421 165 421 399 0 129 -43 224 -145 319 -124 116 -278 139 -441 67
-70 -31 -153 -114 -187 -187 l-28 -58 -299 0 -300 0 -38 -34 -37 -34 -5 -279
-5 -278 -442 -3 -443 -2 0 234 0 235 289 3 289 3 27 25 c60 56 58 40 63 590 3
361 8 507 16 512 13 9 311 10 344 2 15 -4 31 -25 48 -59 44 -93 151 -184 256
-217 154 -47 324 3 437 129 72 80 94 144 94 263 0 151 -44 239 -170 337 -148
115 -324 117 -483 5 -74 -52 -110 -100 -129 -174 l-16 -63 -275 -7 c-306 -8
-307 -8 -343 -81 -17 -33 -19 -81 -25 -519 l-7 -483 -207 -3 -208 -2 0 622 c0
705 -4 764 -64 892 -43 95 -101 180 -178 262 -176 188 -395 269 -658 244z
m204 -260 c125 -20 270 -115 347 -226 33 -48 76 -157 90 -229 6 -32 7 -277 3
-678 l-7 -628 -311 3 -311 4 -82 30 c-135 51 -283 146 -389 250 -84 83 -98
102 -147 205 -78 161 -92 228 -91 424 1 191 13 253 85 409 51 113 107 184 219
279 69 58 261 144 360 160 49 8 176 7 234 -3z m2209 -596 c71 -36 107 -94 107
-174 0 -59 -15 -92 -60 -135 -29 -28 -36 -30 -110 -30 -64 0 -84 4 -107 21
-44 33 -67 81 -67 139 0 78 19 112 87 156 66 43 100 48 150 23z m547 -1242
c138 -102 74 -332 -92 -332 -27 0 -62 7 -78 15 -69 36 -114 140 -91 214 15 52
61 105 103 119 45 15 127 7 158 -16z m-350 -1341 c53 -28 93 -91 93 -145 0
-59 -39 -134 -82 -160 -42 -24 -133 -26 -177 -3 -126 65 -123 239 6 308 44 24
116 24 160 0z"/>
</g>
</svg>
