<svg width="527" height="527" viewBox="0 0 527 527" fill="none" xmlns="http://www.w3.org/2000/svg">
<g clip-path="url(#clip0_2041_461)">
<path d="M378.174 263.242C353.402 263.266 329.299 271.281 309.445 286.097L240.059 216.71C255.05 197.002 263.139 172.908 263.078 148.146C263.143 122.214 254.449 97.0212 238.406 76.6487C222.362 56.2762 199.909 41.9184 174.686 35.902C149.462 29.8856 122.946 32.5633 99.4342 43.5011C75.9226 54.4389 56.7936 72.9958 45.1471 96.1644C33.5006 119.333 30.0191 145.756 35.267 171.151C40.5148 196.545 54.1844 219.424 74.0605 236.078C93.9365 252.733 118.854 262.187 144.775 262.91C170.697 263.632 196.102 255.58 216.875 240.058L286.097 309.445C270.58 330.212 262.528 355.61 263.245 381.524C263.963 407.438 273.408 432.351 290.051 452.228C306.693 472.105 329.559 485.781 354.944 491.041C380.329 496.301 406.746 492.837 429.917 481.21C453.088 469.583 471.655 450.475 482.611 426.979C493.567 403.484 496.27 376.978 490.282 351.755C484.294 326.532 469.967 304.068 449.62 288.004C429.273 271.939 404.099 263.214 378.174 263.242ZM65.7697 148.146C65.7697 131.886 70.5914 115.991 79.6249 102.471C88.6585 88.9515 101.498 78.4142 116.52 72.1918C131.543 65.9694 148.073 64.3413 164.02 67.5135C179.968 70.6856 194.616 78.5156 206.114 90.0131C217.611 101.511 225.441 116.159 228.614 132.107C231.786 148.054 230.158 164.584 223.935 179.607C217.713 194.629 207.176 207.469 193.656 216.502C180.136 225.536 164.241 230.357 147.981 230.357C126.178 230.357 105.267 221.696 89.849 206.278C74.4313 190.86 65.7697 169.949 65.7697 148.146Z" fill="white"/>
</g>
<defs>
<clipPath id="clip0_2041_461">
<rect width="526.155" height="526.155" fill="white"/>
</clipPath>
</defs>
</svg>
