<svg width="918" height="918" viewBox="0 0 918 918" fill="none" xmlns="http://www.w3.org/2000/svg">
<rect x="0.598826" y="0.598826" width="916.802" height="916.802" fill="#141723" stroke="#898989" stroke-width="1.19765"/>
<path d="M656.061 495.383C656.061 495.147 656.347 494.997 656.347 494.761L655.874 284.647C655.874 283.032 655.463 281.491 655.376 279.894C655.463 277.414 656.111 275.086 656.111 272.571C656.111 163.625 567.492 75 458.534 75C349.585 75 260.966 163.625 260.966 272.571C260.966 274.429 261.476 276.113 261.501 277.949C261.252 280.492 260.742 282.901 260.742 285.444L260.823 312.465C260.823 312.689 260.549 312.857 260.549 313.11L261.408 705.637C261.408 713.281 267.614 719.406 275.183 719.406L350.419 719.294L301.887 786.045C298.881 790.25 298.47 795.762 300.814 800.415C303.157 805.065 307.922 808 313.123 808H603.947C604.234 808 604.445 808 604.595 808C612.201 808 618.351 801.825 618.351 794.215C618.351 789.774 616.257 785.812 612.967 783.353L566.104 718.908L642.65 718.771C646.332 718.718 649.858 717.262 652.379 714.666C654.909 712.111 656.447 708.556 656.447 704.952L656.061 495.383ZM288.94 670.302L288.591 496.146C288.591 495.909 288.893 495.71 288.893 495.498L288.591 371.582C318.433 422.547 369.89 458.641 430.7 467.322L288.94 670.302ZM457.435 356.281C457.877 356.281 457.995 355.914 458.437 355.839C458.876 355.914 459.041 356.281 459.461 356.281C467.09 356.25 473.218 350.088 473.218 342.506L473.193 285.002C473.1 264.124 481.117 244.404 495.814 229.573C510.417 214.811 529.888 206.629 550.504 206.591C550.554 206.591 550.641 206.591 550.691 206.591C571.407 206.591 590.828 214.662 605.41 229.368C619.316 243.33 626.786 261.846 627.673 281.491C622.895 371.043 549.256 442.55 458.555 442.55C367.468 442.55 293.556 370.446 289.385 280.417C291.975 239.689 324.807 207.033 365.834 206.965C365.903 206.965 365.953 206.965 366.021 206.965C408.686 206.965 443.476 241.957 443.557 285.058L443.65 342.506C443.653 350.116 449.856 356.281 457.435 356.281ZM628.221 372.167L628.933 676.147L483.24 467.605C545.204 459.799 597.887 423.664 628.221 372.167ZM458.583 102.582C525.422 102.582 582.957 141.779 610.676 198.098C593.163 185.788 572.509 178.991 550.744 178.991C550.645 178.991 550.595 178.991 550.508 178.991C522.393 179.059 496.053 190.13 476.156 210.221C468.748 217.712 463.028 226.361 458.26 235.453C440.488 202.25 406.05 179.38 366.099 179.38C366.024 179.38 365.981 179.38 365.906 179.38C343.942 179.399 323.519 186.395 306.612 198.095C334.216 141.754 391.736 102.582 458.583 102.582ZM576.985 780.421H340.254L384.72 719.291L532.269 719.001L576.985 780.421ZM404.749 691.653L458.58 617.641L512.2 691.416L404.749 691.653ZM469.744 586.072C464.494 578.938 452.664 578.938 447.413 586.072L370.618 691.728L307.577 691.852L456.9 478.035L605.784 691.23L546.2 691.367L469.744 586.072Z" fill="#C2C2E1"/>
<path d="M550.64 302.279C565.212 302.279 577.024 290.466 577.024 275.895C577.024 261.324 565.212 249.511 550.64 249.511C536.069 249.511 524.257 261.324 524.257 275.895C524.257 290.466 536.069 302.279 550.64 302.279Z" fill="#C2C2E1"/>
<path d="M366.516 302.279C381.087 302.279 392.899 290.466 392.899 275.895C392.899 261.324 381.087 249.511 366.516 249.511C351.944 249.511 340.132 261.324 340.132 275.895C340.132 290.466 351.944 302.279 366.516 302.279Z" fill="#C2C2E1"/>
</svg>
